<svg width="64" height="64" viewBox="0 0 64 64" fill="none" xmlns="http://www.w3.org/2000/svg">
  <!-- White circle background -->
  <rect width="64" height="64" rx="32" fill="white" fill-opacity="0.95"/>
  
  <!-- Gold sparkle icon (centered at 16,16 offset for 32x32 icon in 64x64 container) -->
  <g transform="translate(16, 16)">
    <path d="M16.0117 0C16.8566 0.000150178 17.5872 0.639919 17.6787 1.48535C18.4096 8.20535 23.8004 13.5768 30.5156 14.3311C31.3567 14.4222 31.9931 15.1476 31.999 15.9883C31.999 15.9847 32 15.9811 32 15.9775V16C32 15.9961 31.9991 15.9922 31.999 15.9883C31.9937 16.8744 31.3571 17.5778 30.5156 17.6689C23.8004 18.4004 18.4325 23.7946 17.6787 30.5146C17.5872 31.3601 16.8566 31.9998 16.0117 32H15.9883C15.1434 31.9998 14.4128 31.3601 14.3213 30.5146C13.5904 23.7946 8.19958 18.4232 1.48438 17.6689C1.07563 17.6213 0.698466 17.4247 0.424805 17.1172C0.1511 16.8096 3.83539e-05 16.4119 0 16C0 15.1087 0.639402 14.4001 1.48438 14.3086C8.19958 13.5772 13.5679 8.18249 14.2988 1.48535C14.3904 0.63984 15.1208 0 15.9658 0H16.0117Z" fill="#D07A00"/>
  </g>
</svg>

